# xmcd CD database file
#
# Track frame offsets:
#	150
#	16755
#	34283
#	53172
#	66861
#	88544
#	104906
#	111880
#	126475
#	134440
#	150287
#	180461
#	194141
#	214670
#
# Disc length: 3065 seconds
#
# Revision: 2
# Processed by: cddbd v1.5.2PL0 Copyright (c) Steve Scherf et al.
# Submitted via: CDex 1.50
#
DISCID=ca0bf70e
DTITLE=Simone Dinnerstein and Tift Merrit - Night
DYEAR=2013
DGENRE=Country
TTITLE0=Only in Songs
TTITLE1=Night and Dreams
TTITLE2=Don't Explain
TTITLE3=Dido's Lament
TTITLE4=I Shall Weep at Night
TTITLE5=Wayfaring Stranger
TTITLE6=Prelude in B Minor
TTITLE7=Still Not Home
TTITLE8=I Will Give My Love an Apple
TTITLE9=Colors
TTITLE10=The Cohen Variations
TTITLE11=Night
TTITLE12=Feel of the World
TTITLE13=I Can See Clearly Now
EXTD=YEAR: 2013
EXTT0=
EXTT1=
EXTT2=
EXTT3=
EXTT4=
EXTT5=
EXTT6=
EXTT7=
EXTT8=
EXTT9=
EXTT10=
EXTT11=
EXTT12=
EXTT13=
PLAYORDER=
